<?xml version="1.0" encoding="UTF-8" standalone="no"?>
<!DOCTYPE svg PUBLIC "-//W3C//DTD SVG 1.1//EN"
 "http://www.w3.org/Graphics/SVG/1.1/DTD/svg11.dtd">
<!-- Generated by graphviz version 2.47.0 (20210316.0004)
 -->
<!-- Title: dependencies Pages: 1 -->
<svg width="1312pt" height="284pt"
 viewBox="0.00 0.00 1312.00 284.00" xmlns="http://www.w3.org/2000/svg" xmlns:xlink="http://www.w3.org/1999/xlink">
<g id="graph0" class="graph" transform="scale(1 1) rotate(0) translate(4 280)">
<title>dependencies</title>
<polygon fill="white" stroke="transparent" points="-4,4 -4,-280 1308,-280 1308,4 -4,4"/>
<text text-anchor="start" x="631.01" y="-42.4" font-family="Times-12" font-weight="bold" font-size="14.00">Legend</text>
<polygon fill="#ffffb3" stroke="transparent" points="418,-10 418,-30 438,-30 438,-10 418,-10"/>
<text text-anchor="start" x="441.63" y="-15.4" font-family="Times-12" font-size="14.00"> &#160;Declarations</text>
<polygon fill="#8dd3c7" stroke="transparent" points="531,-10 531,-30 551,-30 551,-10 531,-10"/>
<text text-anchor="start" x="554.73" y="-15.4" font-family="Times-12" font-size="14.00"> &#160;Module</text>
<polygon fill="#80b1d3" stroke="transparent" points="617,-10 617,-30 637,-30 637,-10 617,-10"/>
<text text-anchor="start" x="640.78" y="-15.4" font-family="Times-12" font-size="14.00"> &#160;Bootstrap</text>
<polygon fill="#fdb462" stroke="transparent" points="714,-10 714,-30 734,-30 734,-10 714,-10"/>
<text text-anchor="start" x="737.67" y="-15.4" font-family="Times-12" font-size="14.00"> &#160;Providers</text>
<polygon fill="#fb8072" stroke="transparent" points="810,-10 810,-30 830,-30 830,-10 810,-10"/>
<text text-anchor="start" x="833.73" y="-15.4" font-family="Times-12" font-size="14.00"> &#160;Exports</text>
<g id="clust1" class="cluster">
<title>cluster_ComponentsModule</title>
<polygon fill="none" stroke="black" stroke-dasharray="1,5" points="8,-70 8,-268 846,-268 846,-70 8,-70"/>
</g>
<g id="clust2" class="cluster">
<title>cluster_ComponentsModule_declarations</title>
<polygon fill="none" stroke="black" points="24,-78 24,-130 828,-130 828,-78 24,-78"/>
</g>
<g id="clust9" class="cluster">
<title>cluster_ComponentsModule_exports</title>
<polygon fill="none" stroke="black" points="16,-208 16,-260 838,-260 838,-208 16,-208"/>
</g>
<g id="clust18" class="cluster">
<title>cluster_PagesModule</title>
<polygon fill="none" stroke="black" stroke-dasharray="1,5" points="854,-70 854,-195 1296,-195 1296,-70 854,-70"/>
</g>
<g id="clust19" class="cluster">
<title>cluster_PagesModule_declarations</title>
<polygon fill="none" stroke="black" points="1024,-78 1024,-130 1288,-130 1288,-78 1024,-78"/>
</g>
<g id="clust22" class="cluster">
<title>cluster_PagesModule_imports</title>
<polygon fill="none" stroke="black" points="862,-78 862,-130 1016,-130 1016,-78 862,-78"/>
</g>
<!-- AlertComponent -->
<g id="node1" class="node">
<title>AlertComponent</title>
<polygon fill="#ffffb3" stroke="black" points="820.1,-122 709.9,-122 709.9,-86 820.1,-86 820.1,-122"/>
<text text-anchor="middle" x="765" y="-99.8" font-family="Times,serif" font-size="14.00">AlertComponent</text>
</g>
<!-- ComponentsModule -->
<g id="node6" class="node">
<title>ComponentsModule</title>
<polygon fill="#8dd3c7" stroke="black" points="521.33,-187 518.33,-191 497.33,-191 494.33,-187 390.67,-187 390.67,-151 521.33,-151 521.33,-187"/>
<text text-anchor="middle" x="456" y="-164.8" font-family="Times,serif" font-size="14.00">ComponentsModule</text>
</g>
<!-- AlertComponent&#45;&gt;ComponentsModule -->
<g id="edge1" class="edge">
<title>AlertComponent&#45;&gt;ComponentsModule</title>
<path fill="none" stroke="black" d="M785.43,-122.02C785.43,-139.37 785.43,-163 785.43,-163 785.43,-163 531.48,-163 531.48,-163"/>
<polygon fill="black" stroke="black" points="531.48,-159.5 521.48,-163 531.48,-166.5 531.48,-159.5"/>
</g>
<!-- FooterChatComponent -->
<g id="node2" class="node">
<title>FooterChatComponent</title>
<polygon fill="#ffffb3" stroke="black" points="692.32,-122 547.68,-122 547.68,-86 692.32,-86 692.32,-122"/>
<text text-anchor="middle" x="620" y="-99.8" font-family="Times,serif" font-size="14.00">FooterChatComponent</text>
</g>
<!-- FooterChatComponent&#45;&gt;ComponentsModule -->
<g id="edge2" class="edge">
<title>FooterChatComponent&#45;&gt;ComponentsModule</title>
<path fill="none" stroke="black" d="M644.8,-122.24C644.8,-137.57 644.8,-157 644.8,-157 644.8,-157 531.24,-157 531.24,-157"/>
<polygon fill="black" stroke="black" points="531.24,-153.5 521.24,-157 531.24,-160.5 531.24,-153.5"/>
</g>
<!-- HeaderChatComponent -->
<g id="node3" class="node">
<title>HeaderChatComponent</title>
<polygon fill="#ffffb3" stroke="black" points="530.19,-122 381.81,-122 381.81,-86 530.19,-86 530.19,-122"/>
<text text-anchor="middle" x="456" y="-99.8" font-family="Times,serif" font-size="14.00">HeaderChatComponent</text>
</g>
<!-- HeaderChatComponent&#45;&gt;ComponentsModule -->
<g id="edge3" class="edge">
<title>HeaderChatComponent&#45;&gt;ComponentsModule</title>
<path fill="none" stroke="black" d="M456,-122.11C456,-122.11 456,-140.99 456,-140.99"/>
<polygon fill="black" stroke="black" points="452.5,-140.99 456,-150.99 459.5,-140.99 452.5,-140.99"/>
</g>
<!-- MessagesChatComponent -->
<g id="node4" class="node">
<title>MessagesChatComponent</title>
<polygon fill="#ffffb3" stroke="black" points="364.2,-122 201.8,-122 201.8,-86 364.2,-86 364.2,-122"/>
<text text-anchor="middle" x="283" y="-99.8" font-family="Times,serif" font-size="14.00">MessagesChatComponent</text>
</g>
<!-- MessagesChatComponent&#45;&gt;ComponentsModule -->
<g id="edge4" class="edge">
<title>MessagesChatComponent&#45;&gt;ComponentsModule</title>
<path fill="none" stroke="black" d="M308.53,-122.01C308.53,-138.05 308.53,-159 308.53,-159 308.53,-159 380.46,-159 380.46,-159"/>
<polygon fill="black" stroke="black" points="380.46,-162.5 390.46,-159 380.46,-155.5 380.46,-162.5"/>
</g>
<!-- UsersOnlineComponent -->
<g id="node5" class="node">
<title>UsersOnlineComponent</title>
<polygon fill="#ffffb3" stroke="black" points="183.81,-122 32.19,-122 32.19,-86 183.81,-86 183.81,-122"/>
<text text-anchor="middle" x="108" y="-99.8" font-family="Times,serif" font-size="14.00">UsersOnlineComponent</text>
</g>
<!-- UsersOnlineComponent&#45;&gt;ComponentsModule -->
<g id="edge5" class="edge">
<title>UsersOnlineComponent&#45;&gt;ComponentsModule</title>
<path fill="none" stroke="black" d="M129.72,-122.27C129.72,-140.56 129.72,-166 129.72,-166 129.72,-166 380.76,-166 380.76,-166"/>
<polygon fill="black" stroke="black" points="380.76,-169.5 390.76,-166 380.76,-162.5 380.76,-169.5"/>
</g>
<!-- AlertComponent  -->
<g id="node7" class="node">
<title>AlertComponent </title>
<polygon fill="#fb8072" stroke="black" points="829.6,-252 716.4,-252 716.4,-216 829.6,-216 829.6,-252"/>
<text text-anchor="middle" x="773" y="-229.8" font-family="Times,serif" font-size="14.00">AlertComponent </text>
</g>
<!-- ComponentsModule&#45;&gt;AlertComponent  -->
<g id="edge6" class="edge">
<title>ComponentsModule&#45;&gt;AlertComponent </title>
<path fill="none" stroke="black" stroke-dasharray="5,2" d="M521.43,-169C608.29,-169 750.82,-169 750.82,-169 750.82,-169 750.82,-205.89 750.82,-205.89"/>
<polygon fill="black" stroke="black" points="747.32,-205.89 750.82,-215.89 754.32,-205.89 747.32,-205.89"/>
</g>
<!-- FooterChatComponent  -->
<g id="node8" class="node">
<title>FooterChatComponent </title>
<polygon fill="#fb8072" stroke="black" points="697.82,-252 550.18,-252 550.18,-216 697.82,-216 697.82,-252"/>
<text text-anchor="middle" x="624" y="-229.8" font-family="Times,serif" font-size="14.00">FooterChatComponent </text>
</g>
<!-- ComponentsModule&#45;&gt;FooterChatComponent  -->
<g id="edge7" class="edge">
<title>ComponentsModule&#45;&gt;FooterChatComponent </title>
<path fill="none" stroke="black" stroke-dasharray="5,2" d="M521.34,-175C558.4,-175 597.45,-175 597.45,-175 597.45,-175 597.45,-205.98 597.45,-205.98"/>
<polygon fill="black" stroke="black" points="593.95,-205.98 597.45,-215.98 600.95,-205.98 593.95,-205.98"/>
</g>
<!-- HeaderChatComponent  -->
<g id="node9" class="node">
<title>HeaderChatComponent </title>
<polygon fill="#fb8072" stroke="black" points="531.69,-252 380.31,-252 380.31,-216 531.69,-216 531.69,-252"/>
<text text-anchor="middle" x="456" y="-229.8" font-family="Times,serif" font-size="14.00">HeaderChatComponent </text>
</g>
<!-- ComponentsModule&#45;&gt;HeaderChatComponent  -->
<g id="edge8" class="edge">
<title>ComponentsModule&#45;&gt;HeaderChatComponent </title>
<path fill="none" stroke="black" stroke-dasharray="5,2" d="M456,-187.11C456,-187.11 456,-205.99 456,-205.99"/>
<polygon fill="black" stroke="black" points="452.5,-205.99 456,-215.99 459.5,-205.99 452.5,-205.99"/>
</g>
<!-- MessagesChatComponent  -->
<g id="node10" class="node">
<title>MessagesChatComponent </title>
<polygon fill="#fb8072" stroke="black" points="361.7,-252 196.3,-252 196.3,-216 361.7,-216 361.7,-252"/>
<text text-anchor="middle" x="279" y="-229.8" font-family="Times,serif" font-size="14.00">MessagesChatComponent </text>
</g>
<!-- ComponentsModule&#45;&gt;MessagesChatComponent  -->
<g id="edge9" class="edge">
<title>ComponentsModule&#45;&gt;MessagesChatComponent </title>
<path fill="none" stroke="black" stroke-dasharray="5,2" d="M390.81,-180C332.18,-180 255.22,-180 255.22,-180 255.22,-180 255.22,-205.72 255.22,-205.72"/>
<polygon fill="black" stroke="black" points="251.72,-205.72 255.22,-215.72 258.72,-205.72 251.72,-205.72"/>
</g>
<!-- UsersOnlineComponent  -->
<g id="node11" class="node">
<title>UsersOnlineComponent </title>
<polygon fill="#fb8072" stroke="black" points="178.31,-252 23.69,-252 23.69,-216 178.31,-216 178.31,-252"/>
<text text-anchor="middle" x="101" y="-229.8" font-family="Times,serif" font-size="14.00">UsersOnlineComponent </text>
</g>
<!-- ComponentsModule&#45;&gt;UsersOnlineComponent  -->
<g id="edge10" class="edge">
<title>ComponentsModule&#45;&gt;UsersOnlineComponent </title>
<path fill="none" stroke="black" stroke-dasharray="5,2" d="M390.69,-173C283.25,-173 81.03,-173 81.03,-173 81.03,-173 81.03,-205.7 81.03,-205.7"/>
<polygon fill="black" stroke="black" points="77.53,-205.7 81.03,-215.7 84.53,-205.7 77.53,-205.7"/>
</g>
<!-- HomeComponent -->
<g id="node12" class="node">
<title>HomeComponent</title>
<polygon fill="#ffffb3" stroke="black" points="1279.55,-122 1164.45,-122 1164.45,-86 1279.55,-86 1279.55,-122"/>
<text text-anchor="middle" x="1222" y="-99.8" font-family="Times,serif" font-size="14.00">HomeComponent</text>
</g>
<!-- PagesModule -->
<g id="node14" class="node">
<title>PagesModule</title>
<polygon fill="#8dd3c7" stroke="black" points="1135.21,-187 1132.21,-191 1111.21,-191 1108.21,-187 1042.79,-187 1042.79,-151 1135.21,-151 1135.21,-187"/>
<text text-anchor="middle" x="1089" y="-164.8" font-family="Times,serif" font-size="14.00">PagesModule</text>
</g>
<!-- HomeComponent&#45;&gt;PagesModule -->
<g id="edge11" class="edge">
<title>HomeComponent&#45;&gt;PagesModule</title>
<path fill="none" stroke="black" d="M1222,-122.11C1222,-141.34 1222,-169 1222,-169 1222,-169 1145.14,-169 1145.14,-169"/>
<polygon fill="black" stroke="black" points="1145.14,-165.5 1135.14,-169 1145.14,-172.5 1145.14,-165.5"/>
</g>
<!-- LoginComponent -->
<g id="node13" class="node">
<title>LoginComponent</title>
<polygon fill="#ffffb3" stroke="black" points="1146.28,-122 1031.72,-122 1031.72,-86 1146.28,-86 1146.28,-122"/>
<text text-anchor="middle" x="1089" y="-99.8" font-family="Times,serif" font-size="14.00">LoginComponent</text>
</g>
<!-- LoginComponent&#45;&gt;PagesModule -->
<g id="edge12" class="edge">
<title>LoginComponent&#45;&gt;PagesModule</title>
<path fill="none" stroke="black" d="M1089,-122.11C1089,-122.11 1089,-140.99 1089,-140.99"/>
<polygon fill="black" stroke="black" points="1085.5,-140.99 1089,-150.99 1092.5,-140.99 1085.5,-140.99"/>
</g>
<!-- PagesRoutingModule -->
<g id="node15" class="node">
<title>PagesRoutingModule</title>
<polygon fill="#8dd3c7" stroke="black" points="1007.82,-122 1004.82,-126 983.82,-126 980.82,-122 870.18,-122 870.18,-86 1007.82,-86 1007.82,-122"/>
<text text-anchor="middle" x="939" y="-99.8" font-family="Times,serif" font-size="14.00">PagesRoutingModule</text>
</g>
<!-- PagesRoutingModule&#45;&gt;PagesModule -->
<g id="edge13" class="edge">
<title>PagesRoutingModule&#45;&gt;PagesModule</title>
<path fill="none" stroke="black" d="M939,-122.25C939,-145.02 939,-181 939,-181 939,-181 1032.77,-181 1032.77,-181"/>
<polygon fill="black" stroke="black" points="1032.77,-184.5 1042.77,-181 1032.77,-177.5 1032.77,-184.5"/>
</g>
</g>
</svg>
