<?xml version="1.0" encoding="UTF-8" standalone="no"?>
<!DOCTYPE svg PUBLIC "-//W3C//DTD SVG 1.1//EN"
 "http://www.w3.org/Graphics/SVG/1.1/DTD/svg11.dtd">
<!-- Generated by graphviz version 2.47.0 (20210316.0004)
 -->
<!-- Title: dependencies Pages: 1 -->
<svg width="504pt" height="211pt"
 viewBox="0.00 0.00 504.00 211.00" xmlns="http://www.w3.org/2000/svg" xmlns:xlink="http://www.w3.org/1999/xlink">
<g id="graph0" class="graph" transform="scale(1 1) rotate(0) translate(4 207)">
<title>dependencies</title>
<polygon fill="white" stroke="transparent" points="-4,4 -4,-207 500,-207 500,4 -4,4"/>
<text text-anchor="start" x="227.01" y="-42.4" font-family="Times-12" font-weight="bold" font-size="14.00">Legend</text>
<polygon fill="#ffffb3" stroke="transparent" points="14,-10 14,-30 34,-30 34,-10 14,-10"/>
<text text-anchor="start" x="37.63" y="-15.4" font-family="Times-12" font-size="14.00"> &#160;Declarations</text>
<polygon fill="#8dd3c7" stroke="transparent" points="127,-10 127,-30 147,-30 147,-10 127,-10"/>
<text text-anchor="start" x="150.73" y="-15.4" font-family="Times-12" font-size="14.00"> &#160;Module</text>
<polygon fill="#80b1d3" stroke="transparent" points="213,-10 213,-30 233,-30 233,-10 213,-10"/>
<text text-anchor="start" x="236.78" y="-15.4" font-family="Times-12" font-size="14.00"> &#160;Bootstrap</text>
<polygon fill="#fdb462" stroke="transparent" points="310,-10 310,-30 330,-30 330,-10 310,-10"/>
<text text-anchor="start" x="333.67" y="-15.4" font-family="Times-12" font-size="14.00"> &#160;Providers</text>
<polygon fill="#fb8072" stroke="transparent" points="406,-10 406,-30 426,-30 426,-10 406,-10"/>
<text text-anchor="start" x="429.73" y="-15.4" font-family="Times-12" font-size="14.00"> &#160;Exports</text>
<g id="clust1" class="cluster">
<title>cluster_PagesModule</title>
<polygon fill="none" stroke="black" stroke-dasharray="1,5" points="27,-70 27,-195 469,-195 469,-70 27,-70"/>
</g>
<g id="clust5" class="cluster">
<title>cluster_PagesModule_imports</title>
<polygon fill="none" stroke="black" points="307,-78 307,-130 461,-130 461,-78 307,-78"/>
</g>
<g id="clust2" class="cluster">
<title>cluster_PagesModule_declarations</title>
<polygon fill="none" stroke="black" points="35,-78 35,-130 299,-130 299,-78 35,-78"/>
</g>
<!-- HomeComponent -->
<g id="node1" class="node">
<title>HomeComponent</title>
<polygon fill="#ffffb3" stroke="black" points="290.55,-122 175.45,-122 175.45,-86 290.55,-86 290.55,-122"/>
<text text-anchor="middle" x="233" y="-99.8" font-family="Times,serif" font-size="14.00">HomeComponent</text>
</g>
<!-- PagesModule -->
<g id="node3" class="node">
<title>PagesModule</title>
<polygon fill="#8dd3c7" stroke="black" points="279.21,-187 276.21,-191 255.21,-191 252.21,-187 186.79,-187 186.79,-151 279.21,-151 279.21,-187"/>
<text text-anchor="middle" x="233" y="-164.8" font-family="Times,serif" font-size="14.00">PagesModule</text>
</g>
<!-- HomeComponent&#45;&gt;PagesModule -->
<g id="edge1" class="edge">
<title>HomeComponent&#45;&gt;PagesModule</title>
<path fill="none" stroke="black" d="M233,-122.11C233,-122.11 233,-140.99 233,-140.99"/>
<polygon fill="black" stroke="black" points="229.5,-140.99 233,-150.99 236.5,-140.99 229.5,-140.99"/>
</g>
<!-- LoginComponent -->
<g id="node2" class="node">
<title>LoginComponent</title>
<polygon fill="#ffffb3" stroke="black" points="157.28,-122 42.72,-122 42.72,-86 157.28,-86 157.28,-122"/>
<text text-anchor="middle" x="100" y="-99.8" font-family="Times,serif" font-size="14.00">LoginComponent</text>
</g>
<!-- LoginComponent&#45;&gt;PagesModule -->
<g id="edge2" class="edge">
<title>LoginComponent&#45;&gt;PagesModule</title>
<path fill="none" stroke="black" d="M100,-122.11C100,-141.34 100,-169 100,-169 100,-169 176.86,-169 176.86,-169"/>
<polygon fill="black" stroke="black" points="176.86,-172.5 186.86,-169 176.86,-165.5 176.86,-172.5"/>
</g>
<!-- PagesRoutingModule -->
<g id="node4" class="node">
<title>PagesRoutingModule</title>
<polygon fill="#8dd3c7" stroke="black" points="452.82,-122 449.82,-126 428.82,-126 425.82,-122 315.18,-122 315.18,-86 452.82,-86 452.82,-122"/>
<text text-anchor="middle" x="384" y="-99.8" font-family="Times,serif" font-size="14.00">PagesRoutingModule</text>
</g>
<!-- PagesRoutingModule&#45;&gt;PagesModule -->
<g id="edge3" class="edge">
<title>PagesRoutingModule&#45;&gt;PagesModule</title>
<path fill="none" stroke="black" d="M384,-122.11C384,-141.34 384,-169 384,-169 384,-169 289.13,-169 289.13,-169"/>
<polygon fill="black" stroke="black" points="289.13,-165.5 279.13,-169 289.13,-172.5 289.13,-165.5"/>
</g>
</g>
</svg>
